<svg xmlns="http://www.w3.org/2000/svg" width="26" height="28.449" viewBox="0 0 26 28.449">
  <path id="noun_User_373741" d="M34.6,32.364V28.282a8.885,8.885,0,0,0-8.855-8.855h-8.29A8.865,8.865,0,0,0,8.6,28.282v4.082a.777.777,0,0,0,.785.785h24.4A.8.8,0,0,0,34.6,32.364Zm-1.57-.785H10.17v-3.3A7.29,7.29,0,0,1,17.455,21h8.258a7.3,7.3,0,0,1,7.316,7.285ZM21.6,17.731A6.516,6.516,0,1,0,15.069,11.2,6.547,6.547,0,0,0,21.6,17.731Zm0-11.461a4.946,4.946,0,1,1-4.961,4.93A4.972,4.972,0,0,1,21.6,6.27Z" transform="translate(-8.6 -4.7)" fill="#323136"/>
</svg>
